<?xml version="1.0" encoding="utf-8"?><svg xmlns="http://www.w3.org/2000/svg" xmlns:xlink="http://www.w3.org/1999/xlink"><symbol viewBox="0 0 49 49" id="icon-cogs"><path d="M49 20.57v7.85l-5.737.96a19.4 19.4 0 0 1-2.042 4.93l3.379 4.737-5.553 5.553-4.737-3.389a19.075 19.075 0 0 1-4.93 2.052L28.43 49h-7.86l-.95-5.737a19.075 19.075 0 0 1-4.93-2.052L9.953 44.6 4.4 39.047l3.379-4.737a19.4 19.4 0 0 1-2.042-4.93L0 28.42v-7.85l5.737-.96a19.334 19.334 0 0 1 2.042-4.92L4.4 9.953 9.953 4.4l4.737 3.379a19.4 19.4 0 0 1 4.93-2.042L20.57 0h7.86l.95 5.737a19.4 19.4 0 0 1 4.93 2.042L39.047 4.4 44.6 9.953l-3.379 4.737a19.35 19.35 0 0 1 2.042 4.92l5.737.96zm-24.5-9.343c-7.318 0-13.271 5.954-13.271 13.271 0 7.317 5.953 13.271 13.271 13.271 7.318 0 13.271-5.954 13.271-13.271 0-7.317-5.953-13.271-13.271-13.271zm3.634 16.36l3.089-3.089-3.089-3.089 1.443-1.444 4.533 4.533-4.533 4.533-1.443-1.444zm-6.823 3.242l4.409-12.125 1.918.698-4.408 12.124-1.919-.697zm-1.888-1.798l-4.533-4.533 4.533-4.533 1.443 1.444-3.089 3.089 3.089 3.089-1.443 1.444z"/></symbol><symbol viewBox="0 0 18 15" id="icon-dialog"><path d="M17.287 9.87c-.475.693-1.129 1.278-1.959 1.755.067.159.136.305.206.438.071.132.154.26.251.383l.227.288c.053.069.14.167.261.293a7.83 7.83 0 0 1 .316.343.5.5 0 0 1 .075.104l.025.05.02.059c.013.04.015.062.005.065-.01.003-.013.025-.01.065a.367.367 0 0 1-.13.218.304.304 0 0 1-.221.07 8.314 8.314 0 0 1-.864-.159 8.474 8.474 0 0 1-2.793-1.273 10.19 10.19 0 0 1-1.768.159c-1.814 0-3.395-.437-4.741-1.312a10.722 10.722 0 0 0 3.988-.408 8.923 8.923 0 0 0 2.652-1.283c.837-.609 1.48-1.312 1.928-2.107a5.064 5.064 0 0 0 .442-4.037c.864.47 1.547 1.06 2.05 1.77.502.709.753 1.471.753 2.286 0 .796-.238 1.54-.713 2.233zm-6.665-.368c-1.088.454-2.272.681-3.551.681-.575 0-1.165-.053-1.767-.159a8.492 8.492 0 0 1-2.793 1.272c-.241.06-.529.113-.864.159h-.03a.317.317 0 0 1-.206-.079.329.329 0 0 1-.115-.209.19.19 0 0 1-.01-.064c0-.023.001-.045.005-.065.003-.02.01-.04.02-.06l.025-.049.035-.055c.024-.036.037-.053.04-.049.004.003.019-.014.046-.05.026-.037.04-.052.04-.045.033-.04.11-.123.231-.248a4.12 4.12 0 0 0 .261-.294l.226-.288c.097-.123.181-.25.251-.383.07-.132.139-.278.206-.437-.83-.477-1.483-1.064-1.959-1.76C.238 6.624 0 5.881 0 5.093c0-.922.315-1.774.944-2.556.63-.782 1.489-1.4 2.577-1.854C4.609.229 5.792.002 7.071.002c1.28 0 2.463.227 3.551.681 1.089.454 1.947 1.072 2.577 1.854.629.782.944 1.634.944 2.556 0 .921-.315 1.773-.944 2.555-.63.782-1.488 1.4-2.577 1.854zm1.447-6.309c-.526-.59-1.234-1.057-2.125-1.402a7.902 7.902 0 0 0-2.873-.517 7.9 7.9 0 0 0-2.872.517c-.891.345-1.599.812-2.125 1.402-.525.59-.788 1.223-.788 1.9 0 .543.177 1.067.532 1.571.355.503.854.941 1.497 1.312l.974.557-.351.835c.227-.133.435-.262.622-.388l.442-.308.533.099c.522.093 1.034.14 1.536.14a7.902 7.902 0 0 0 2.873-.517c.891-.345 1.599-.812 2.125-1.402.525-.59.788-1.223.788-1.899 0-.677-.263-1.31-.788-1.9z"/></symbol><symbol viewBox="0 0 11 14" id="icon-lock"><path d="M9.35 6.416V4.791S9.349.999 5.5.999c-3.85 0-3.85 3.792-3.85 3.792v1.625H0V14h11V6.416H9.35zM6.05 10.6v1.775h-1.1V10.6a1.078 1.078 0 0 1-.55-.933c0-.599.493-1.084 1.1-1.084.607 0 1.1.485 1.1 1.084 0 .399-.223.745-.55.933m2.2-4.184h-5.5V4.798c.006-.453.168-2.715 2.75-2.715s2.744 2.262 2.75 2.708v1.625z"/></symbol><symbol viewBox="0 0 184 53" id="icon-logo"><path d="M8 53H5V16h3v34h173V8H16V5h168v48H8zm0-40H5V8H0V5h5V0h3v5h5v3H8v5z"/></symbol><symbol viewBox="0 0 14 14" id="icon-user"><path d="M12.971 11.024c-.199-.623-.858-.713-1.409-.963-.605-.276-1.275-.595-1.879-.863l-.516-.152c-.206-.152-.407-.66-.517-.912l-.329-.051c.017-.391.241-.411.329-.71.077-.263.008-.605.131-.849.085-.169.278-.17.374-.315.088-.132.145-.361.172-.523.05-.294.093-.697-.036-.99-.075-.167-.122-.183-.143-.388-.025-.246.068-1.052.072-1.226.009-.452-.001-.489-.102-.929 0 0-.123-.399-.316-.519l-.384-.071-.238-.238c-.957-.636-1.983-.19-2.533.051-.791.277-1.292 1.114-.942 2.903.059.305-.155.442-.141.609.03.364.037 1.241.356 1.457.029.02.256.081.254.064l.094 1.065c.08.236.271.262.326.595l-.244.065c-.11.252-.311.76-.517.912l-.516.152c-.604.268-1.274.587-1.879.863-.551.25-1.21.34-1.409.963 0 .424-.037 1.424-.027 1.978h5.265l.387-2.851-.322-.732.742-.384.625.376-.344.754.609 2.837h5.034c.01-.554-.027-1.554-.027-1.978z"/></symbol><symbol viewBox="0 0 52 66" id="icon-user-ava"><path d="M49.687 61.944c-9.771 4.045-37.616 4.045-47.384 0-.787-.328-1.414-1.479-1.277-4.563.198-4.458.447-11.528 4.222-17.31 0 0 1.076-1.515 3.63-2.521 0 0 5.549-1.743 8.098-3.628 0 0 1.185.888 1.169.824.002.026-.128 7.822-.128 7.822l7.001 19.285c.153.425.544.703.98.703.436 0 .826-.278.98-.703l7.001-19.285-.129-7.822 1.165-.824c2.556 1.885 8.101 3.628 8.101 3.628 2.556 1.006 3.631 2.521 3.631 2.521 3.775 5.782 4.021 12.852 4.219 17.31.136 3.084-.487 4.235-1.279 4.563zM25.931 38.077l.316-.008c.996-.04 1.939-.22 2.832-.491l-2.735 4.316 2.493 2.48-2.564 16.06a.28.28 0 0 1-.273.24.278.278 0 0 1-.274-.24l-2.563-16.06 2.491-2.48-2.776-4.383c1.009.361 2.036.566 3.053.566zm11.776-20.4c.678.928.414 2.683.17 3.848-.221 1.013-.584 1.876-.964 2.28-.918 5.075-5 11.48-10.76 11.772-4.528.23-10.166-5.292-11.069-11.772-.379-.406-.704-1.058-.916-2.065-.247-1.164-.69-3.138-.009-4.063.095-.137.212-.249.338-.336-1.309-4.879-.228-7.449-.061-7.855C16.754 3.767 21.778.327 28.894 2.78c2.409.831 5.076 1.884 6.995 3.98 3.543 3.867 2.122 8.17 1.473 10.581.046.041.303.287.345.336z"/></symbol><symbol viewBox="0 0 52 66" id="icon-user-dev"><path d="M49.687 61.944c-9.771 4.045-37.616 4.045-47.384 0-.787-.328-1.414-1.479-1.277-4.563.198-4.458.447-11.528 4.222-17.31 0 0 1.076-1.515 3.63-2.521 0 0 5.549-1.743 8.098-3.628 0 0 1.185.888 1.169.824.002.026-.128 7.822-.128 7.822l7.001 19.285c.153.425.544.703.98.703.436 0 .826-.278.98-.703l7.001-19.285-.129-7.822 1.165-.824c2.556 1.885 8.101 3.628 8.101 3.628 2.556 1.006 3.631 2.521 3.631 2.521 3.775 5.782 4.021 12.852 4.219 17.31.136 3.084-.487 4.235-1.279 4.563zM25.931 38.077l.316-.008c.996-.04 1.939-.22 2.832-.491l-2.735 4.316 2.493 2.48-2.564 16.06a.28.28 0 0 1-.273.24.278.278 0 0 1-.274-.24l-2.563-16.06 2.491-2.48-2.776-4.383c1.009.361 2.036.566 3.053.566zm11.776-20.4c.678.928.414 2.683.17 3.848-.221 1.013-.584 1.876-.964 2.28-.918 5.075-5 11.48-10.76 11.772-4.528.23-10.166-5.292-11.069-11.772-.379-.406-.704-1.058-.916-2.065-.247-1.164-.69-3.138-.009-4.063.095-.137.212-.249.338-.336-1.309-4.879-.228-7.449-.061-7.855C16.754 3.767 21.778.327 28.894 2.78c2.409.831 5.076 1.884 6.995 3.98 3.543 3.867 2.122 8.17 1.473 10.581.046.041.303.287.345.336z"/></symbol><symbol viewBox="0 0 16 14" id="icon-user-plus"><path d="M9.902 10.46c-1.994-.699-2.631-1.289-2.631-2.551 0-.757.609-.51.876-1.898.111-.575.649-.009.751-1.323 0-.524-.293-.654-.293-.654s.149-.775.207-1.371C8.885 1.92 8.366 0 5.6 0S2.315 1.92 2.387 2.663c.059.596.208 1.371.208 1.371s-.293.13-.293.654c.102 1.314.64.748.75 1.323.268 1.388.877 1.141.877 1.898 0 1.262-.637 1.852-2.631 2.551-.24.083-.812.214-1.298.418V14h12.8v-1.637c0-.488-.899-1.203-2.898-1.903zM13.6 6.222V3.889H12v2.333H9.6v1.556H12v2.333h1.6V7.778H16V6.222h-2.4z"/></symbol></svg>