<svg baseProfile="full" xmlns="http://www.w3.org/2000/svg" height="49" width="49"><path fill="#ADADAD" d="M49 20.57v7.85l-5.737.96a19.4 19.4 0 0 1-2.042 4.93l3.379 4.737-5.553 5.553-4.737-3.389a19.075 19.075 0 0 1-4.93 2.052L28.43 49h-7.86l-.95-5.737a19.075 19.075 0 0 1-4.93-2.052L9.953 44.6 4.4 39.047l3.379-4.737a19.4 19.4 0 0 1-2.042-4.93L0 28.42v-7.85l5.737-.96a19.334 19.334 0 0 1 2.042-4.92L4.4 9.953 9.953 4.4l4.737 3.379a19.4 19.4 0 0 1 4.93-2.042L20.57 0h7.86l.95 5.737a19.4 19.4 0 0 1 4.93 2.042L39.047 4.4 44.6 9.953l-3.379 4.737a19.35 19.35 0 0 1 2.042 4.92l5.737.96zm-24.5-9.343c-7.318 0-13.271 5.954-13.271 13.271 0 7.317 5.953 13.271 13.271 13.271 7.318 0 13.271-5.954 13.271-13.271 0-7.317-5.953-13.271-13.271-13.271zm3.634 16.36l3.089-3.089-3.089-3.089 1.443-1.444 4.533 4.533-4.533 4.533-1.443-1.444zm-6.823 3.242l4.409-12.125 1.918.698-4.408 12.124-1.919-.697zm-1.888-1.798l-4.533-4.533 4.533-4.533 1.443 1.444-3.089 3.089 3.089 3.089-1.443 1.444z"/></svg>