<svg baseProfile="full" xmlns="http://www.w3.org/2000/svg" height="15" width="18"><path fill="#99C12D" d="M17.287 9.87c-.475.693-1.129 1.278-1.959 1.755.067.159.136.305.206.438.071.132.154.26.251.383l.227.288c.053.069.14.167.261.293a7.83 7.83 0 0 1 .316.343.5.5 0 0 1 .075.104l.025.05.02.059c.013.04.015.062.005.065-.01.003-.013.025-.01.065a.367.367 0 0 1-.13.218.304.304 0 0 1-.221.07 8.314 8.314 0 0 1-.864-.159 8.474 8.474 0 0 1-2.793-1.273 10.19 10.19 0 0 1-1.768.159c-1.814 0-3.395-.437-4.741-1.312a10.722 10.722 0 0 0 3.988-.408 8.923 8.923 0 0 0 2.652-1.283c.837-.609 1.48-1.312 1.928-2.107a5.064 5.064 0 0 0 .442-4.037c.864.47 1.547 1.06 2.05 1.77.502.709.753 1.471.753 2.286 0 .796-.238 1.54-.713 2.233zm-6.665-.368c-1.088.454-2.272.681-3.551.681-.575 0-1.165-.053-1.767-.159a8.492 8.492 0 0 1-2.793 1.272c-.241.06-.529.113-.864.159h-.03a.317.317 0 0 1-.206-.079.329.329 0 0 1-.115-.209.19.19 0 0 1-.01-.064c0-.023.001-.045.005-.065.003-.02.01-.04.02-.06l.025-.049.035-.055c.024-.036.037-.053.04-.049.004.003.019-.014.046-.05.026-.037.04-.052.04-.045.033-.04.11-.123.231-.248a4.12 4.12 0 0 0 .261-.294l.226-.288c.097-.123.181-.25.251-.383.07-.132.139-.278.206-.437-.83-.477-1.483-1.064-1.959-1.76C.238 6.624 0 5.881 0 5.093c0-.922.315-1.774.944-2.556.63-.782 1.489-1.4 2.577-1.854C4.609.229 5.792.002 7.071.002c1.28 0 2.463.227 3.551.681 1.089.454 1.947 1.072 2.577 1.854.629.782.944 1.634.944 2.556 0 .921-.315 1.773-.944 2.555-.63.782-1.488 1.4-2.577 1.854zm1.447-6.309c-.526-.59-1.234-1.057-2.125-1.402a7.902 7.902 0 0 0-2.873-.517 7.9 7.9 0 0 0-2.872.517c-.891.345-1.599.812-2.125 1.402-.525.59-.788 1.223-.788 1.9 0 .543.177 1.067.532 1.571.355.503.854.941 1.497 1.312l.974.557-.351.835c.227-.133.435-.262.622-.388l.442-.308.533.099c.522.093 1.034.14 1.536.14a7.902 7.902 0 0 0 2.873-.517c.891-.345 1.599-.812 2.125-1.402.525-.59.788-1.223.788-1.899 0-.677-.263-1.31-.788-1.9z"/></svg>