<svg baseProfile="full" xmlns="http://www.w3.org/2000/svg" height="14" width="14"><path d="M12.971 11.024c-.199-.623-.858-.713-1.409-.963-.605-.276-1.275-.595-1.879-.863l-.516-.152c-.206-.152-.407-.66-.517-.912l-.329-.051c.017-.391.241-.411.329-.71.077-.263.008-.605.131-.849.085-.169.278-.17.374-.315.088-.132.145-.361.172-.523.05-.294.093-.697-.036-.99-.075-.167-.122-.183-.143-.388-.025-.246.068-1.052.072-1.226.009-.452-.001-.489-.102-.929 0 0-.123-.399-.316-.519l-.384-.071-.238-.238c-.957-.636-1.983-.19-2.533.051-.791.277-1.292 1.114-.942 2.903.059.305-.155.442-.141.609.03.364.037 1.241.356 1.457.029.02.256.081.254.064l.094 1.065c.08.236.271.262.326.595l-.244.065c-.11.252-.311.76-.517.912l-.516.152c-.604.268-1.274.587-1.879.863-.551.25-1.21.34-1.409.963 0 .424-.037 1.424-.027 1.978h5.265l.387-2.851-.322-.732.742-.384.625.376-.344.754.609 2.837h5.034c.01-.554-.027-1.554-.027-1.978z"/></svg>