<svg baseProfile="full" xmlns="http://www.w3.org/2000/svg" height="14" width="16"><path fill="#99C12D" d="M9.902 10.46c-1.994-.699-2.631-1.289-2.631-2.551 0-.757.609-.51.876-1.898.111-.575.649-.009.751-1.323 0-.524-.293-.654-.293-.654s.149-.775.207-1.371C8.885 1.92 8.366 0 5.6 0S2.315 1.92 2.387 2.663c.059.596.208 1.371.208 1.371s-.293.13-.293.654c.102 1.314.64.748.75 1.323.268 1.388.877 1.141.877 1.898 0 1.262-.637 1.852-2.631 2.551-.24.083-.812.214-1.298.418V14h12.8v-1.637c0-.488-.899-1.203-2.898-1.903zM13.6 6.222V3.889H12v2.333H9.6v1.556H12v2.333h1.6V7.778H16V6.222h-2.4z"/></svg>