<svg baseProfile="full" xmlns="http://www.w3.org/2000/svg" height="66" width="52"><path fill="#99C12D" d="M49.687 61.944c-9.771 4.045-37.616 4.045-47.384 0-.787-.328-1.414-1.479-1.277-4.563.198-4.458.447-11.528 4.222-17.31 0 0 1.076-1.515 3.63-2.521 0 0 5.549-1.743 8.098-3.628 0 0 1.185.888 1.169.824.002.026-.128 7.822-.128 7.822l7.001 19.285c.153.425.544.703.98.703.436 0 .826-.278.98-.703l7.001-19.285-.129-7.822 1.165-.824c2.556 1.885 8.101 3.628 8.101 3.628 2.556 1.006 3.631 2.521 3.631 2.521 3.775 5.782 4.021 12.852 4.219 17.31.136 3.084-.487 4.235-1.279 4.563zM25.931 38.077l.316-.008c.996-.04 1.939-.22 2.832-.491l-2.735 4.316 2.493 2.48-2.564 16.06a.28.28 0 0 1-.273.24.278.278 0 0 1-.274-.24l-2.563-16.06 2.491-2.48-2.776-4.383c1.009.361 2.036.566 3.053.566zm11.776-20.4c.678.928.414 2.683.17 3.848-.221 1.013-.584 1.876-.964 2.28-.918 5.075-5 11.48-10.76 11.772-4.528.23-10.166-5.292-11.069-11.772-.379-.406-.704-1.058-.916-2.065-.247-1.164-.69-3.138-.009-4.063.095-.137.212-.249.338-.336-1.309-4.879-.228-7.449-.061-7.855C16.754 3.767 21.778.327 28.894 2.78c2.409.831 5.076 1.884 6.995 3.98 3.543 3.867 2.122 8.17 1.473 10.581.046.041.303.287.345.336z"/></svg>