<!DOCTYPE svg PUBLIC "-//W3C//DTD SVG 20010904//EN" "http://www.w3.org/TR/2001/REC-SVG-20010904/DTD/svg10.dtd">
<svg version="1.0" xmlns="http://www.w3.org/2000/svg" width="412px" height="66px" viewBox="0 0 4120 660" preserveAspectRatio="xMidYMid meet">
<g id="layer1" fill="#ffffff" stroke="none">
 <path d="M0 571 l0 -90 36 -3 37 -3 65 -172 65 -173 58 0 57 0 26 68 c14 37 43 114 65 172 l39 105 41 3 41 3 0 90 0 89 -50 0 -50 0 0 -40 0 -40 -170 0 -170 0 0 40 0 40 -45 0 -45 0 0 -89z m320 -95 c0 -12 -53 -172 -59 -178 -4 -5 -20 35 -37 87 l-30 95 63 0 c35 0 63 -2 63 -4z"/>
 <path d="M1122 573 c-33 -16 -82 -76 -82 -100 0 -9 103 -49 105 -40 0 1 5 11 11 22 26 48 114 41 114 -9 0 -35 -20 -46 -94 -53 l-66 -6 0 -37 0 -37 68 -9 c59 -8 67 -12 70 -32 8 -53 -52 -71 -87 -26 -20 25 -22 26 -71 13 -27 -7 -50 -16 -50 -19 0 -17 49 -77 79 -97 70 -48 211 -21 246 47 24 46 19 85 -16 125 -17 19 -26 35 -20 35 7 0 23 12 36 26 52 56 22 158 -58 194 -52 24 -140 26 -185 3z"/>
 <path d="M560 355 l0 -225 60 0 59 0 3 135 3 134 83 -134 84 -135 64 0 64 0 0 225 0 225 -61 0 -60 0 3 -134 c2 -74 1 -132 -2 -129 -3 2 -41 62 -86 131 l-80 127 -67 3 -67 3 0 -226z"/>
 <path d="M1400 571 c0 -4 39 -100 86 -212 47 -112 88 -210 91 -216 3 -8 26 -13 63 -13 l57 0 88 213 c48 116 90 218 92 225 4 9 -12 12 -61 12 l-66 0 -16 -40 -16 -40 -84 0 -83 0 -12 40 -12 40 -64 0 c-34 0 -63 -4 -63 -9z m278 -183 c-3 -7 -13 -37 -23 -67 l-18 -54 -23 64 c-13 35 -24 65 -24 67 0 1 21 2 46 2 33 0 45 -4 42 -12z"/>
 <path d="M1910 355 l0 -225 55 0 54 0 3 135 3 134 83 -134 83 -135 70 0 69 0 0 225 0 225 -60 0 -60 0 0 -137 0 -138 -82 137 -83 137 -67 1 -68 0 0 -225z"/>
 <path d="M2400 355 l0 -225 60 0 60 0 0 80 0 80 80 0 80 0 0 -80 0 -80 60 0 60 0 0 225 0 225 -60 0 -60 0 0 -90 0 -90 -80 0 -80 0 0 90 0 90 -60 0 -60 0 0 -225z"/>
 <path d="M2880 355 l0 -225 155 0 155 0 0 50 0 50 -95 0 -95 0 0 35 0 35 90 0 90 0 0 50 0 50 -90 0 -90 0 0 40 0 40 100 0 100 0 0 50 0 50 -160 0 -160 0 0 -225z"/>
 <path d="M3260 355 l0 -225 118 0 c92 0 124 4 151 18 95 48 105 172 20 235 -15 10 -58 24 -98 30 l-71 11 0 78 0 78 -60 0 -60 0 0 -225z m208 -51 c44 -30 15 -74 -49 -74 l-39 0 0 45 c0 44 1 45 33 45 18 0 43 -7 55 -16z"/>
 <path d="M3660 355 l0 -225 60 0 60 0 0 80 0 80 45 0 c56 0 102 19 135 55 33 35 35 119 4 162 -38 52 -96 73 -206 73 l-98 0 0 -225z m194 109 c32 -31 6 -74 -44 -74 -26 0 -28 3 -32 45 -3 45 -3 45 29 45 17 0 39 -7 47 -16z"/>
 <path d="M4000 355 l0 -225 60 0 60 0 0 225 0 225 -60 0 -60 0 0 -225z"/>
 <path d="M2075 103 c-29 -7 -85 -52 -85 -67 0 -8 13 -19 30 -26 26 -11 32 -9 57 10 30 23 64 21 95 -7 15 -13 22 -14 48 -3 37 15 37 19 3 52 -44 42 -91 55 -148 41z"/>
 </g>

</svg>